<?xml version="1.0" encoding="UTF-8"?>
<svg version="1.1" xmlns="http://www.w3.org/2000/svg" width="138" height="54">
<path d="M0 0 C1.51400391 0.01740234 1.51400391 0.01740234 3.05859375 0.03515625 C4.07050781 0.04417969 5.08242188 0.05320312 6.125 0.0625 C7.29869141 0.07990234 7.29869141 0.07990234 8.49609375 0.09765625 C8.49609375 10.09765625 8.49609375 20.09765625 8.49609375 30.09765625 C4.86609375 30.09765625 1.23609375 30.09765625 -2.50390625 30.09765625 C-3.50390625 26.09765625 -3.50390625 26.09765625 -3.50390625 19.09765625 C-8.12390625 19.09765625 -12.74390625 19.09765625 -17.50390625 19.09765625 C-17.50390625 12.09765625 -17.50390625 12.09765625 -16.50390625 11.09765625 C-14.24975247 10.81476444 -11.99549969 10.64994435 -9.73046875 10.4765625 C-7.22470547 10.205648 -7.22470547 10.205648 -4.50390625 8.09765625 C-4.09661397 5.77609028 -3.75951948 3.44077755 -3.50390625 1.09765625 C-2.50390625 0.09765625 -2.50390625 0.09765625 0 0 Z M-4.50390625 12.09765625 C-4.50390625 14.07765625 -4.50390625 16.05765625 -4.50390625 18.09765625 C-4.17390625 18.09765625 -3.84390625 18.09765625 -3.50390625 18.09765625 C-3.50390625 16.11765625 -3.50390625 14.13765625 -3.50390625 12.09765625 C-3.83390625 12.09765625 -4.16390625 12.09765625 -4.50390625 12.09765625 Z " fill="#6D6E70" transform="translate(19.50390625,11.90234375)"/>
<path d="M0 0 C0.33 0.99 0.66 1.98 1 3 C1.99 3 2.98 3 4 3 C4.66 4.65 5.32 6.3 6 8 C6.33 7.175 6.66 6.35 7 5.5 C9 3 9 3 10.875 2.6328125 C14.2270125 2.62048892 16.79659086 2.93219695 20 4 C20 4.66 20 5.32 20 6 C18.68 6.33 17.36 6.66 16 7 C17.32 7.33 18.64 7.66 20 8 C20 9.65 20 11.3 20 13 C17.08517222 13.80967438 15.53886783 14.21845993 12.6875 13.0625 C12.130625 12.711875 11.57375 12.36125 11 12 C11 11.34 11 10.68 11 10 C12.32 10 13.64 10 15 10 C12.525 9.505 12.525 9.505 10 9 C9.81824219 9.56589844 9.63648437 10.13179687 9.44921875 10.71484375 C9.19785156 11.44832031 8.94648437 12.18179688 8.6875 12.9375 C8.44386719 13.66839844 8.20023438 14.39929688 7.94921875 15.15234375 C7 17 7 17 4 18 C4 17.01 4 16.02 4 15 C3.34583459 11.51111781 2.48468071 8.23040419 1 5 C-1.98630305 2.79236335 -1.98630305 2.79236335 -5 2 C-5.99 2.66 -6.98 3.32 -8 4 C-6.865625 4.144375 -5.73125 4.28875 -4.5625 4.4375 C-1 5 -1 5 0 6 C0.04092937 8.33297433 0.04241723 10.66705225 0 13 C-7.625 14.25 -7.625 14.25 -11 12 C-11 10.68 -11 9.36 -11 8 C-10.34 8 -9.68 8 -9 8 C-9 8.99 -9 9.98 -9 11 C-6.69 11 -4.38 11 -2 11 C-2 10.01 -2 9.02 -2 8 C-4.64 7.67 -7.28 7.34 -10 7 C-11.125 2.25 -11.125 2.25 -10 0 C-6.30581799 -1.231394 -3.7943739 -0.64432764 0 0 Z " fill="#85BA40" transform="translate(61,32)"/>
<path d="M0 0 C3.96 0 7.92 0 12 0 C12 2.97 12 5.94 12 9 C8.04 9 4.08 9 0 9 C0 6.03 0 3.06 0 0 Z " fill="#A6CC39" transform="translate(30,33)"/>
<path d="M0 0 C3.96 0 7.92 0 12 0 C12 2.97 12 5.94 12 9 C8.04 9 4.08 9 0 9 C0 6.03 0 3.06 0 0 Z " fill="#A6CC39" transform="translate(30,2)"/>
<path d="M0 0 C3.96 0 7.92 0 12 0 C12 2.97 12 5.94 12 9 C8.04 9 4.08 9 0 9 C0 6.03 0 3.06 0 0 Z " fill="#A6CC39" transform="translate(16,2)"/>
<path d="M0 0 C3.96 0 7.92 0 12 0 C12 2.97 12 5.94 12 9 C10.18757948 9.02687279 8.37504767 9.04633715 6.5625 9.0625 C5.55316406 9.07410156 4.54382812 9.08570313 3.50390625 9.09765625 C1 9 1 9 0 8 C-0.14115161 5.32941149 -0.04247107 2.67567762 0 0 Z " fill="#A6CC39" transform="translate(30,43)"/>
<path d="M0 0 C0.99 0.495 0.99 0.495 2 1 C3.70363822 1.22622081 5.41328701 1.40888473 7.125 1.5625 C8.03507812 1.64628906 8.94515625 1.73007812 9.8828125 1.81640625 C10.58148438 1.87699219 11.28015625 1.93757813 12 2 C12 4.97 12 7.94 12 11 C8.37 11 4.74 11 1 11 C0.0318352 7.1273408 -0.07622858 3.96388638 0 0 Z " fill="#6D6E70" transform="translate(16,31)"/>
<path d="M0 0 C3.96 0 7.92 0 12 0 C12 2.97 12 5.94 12 9 C10.18757948 9.02687279 8.37504767 9.04633715 6.5625 9.0625 C5.55316406 9.07410156 4.54382812 9.08570313 3.50390625 9.09765625 C1 9 1 9 0 8 C-0.14115161 5.32941149 -0.04247107 2.67567762 0 0 Z " fill="#A6CC39" transform="translate(30,23)"/>
<path d="M0 0 C3.96 0 7.92 0 12 0 C12 2.97 12 5.94 12 9 C10.18757948 9.02687279 8.37504767 9.04633715 6.5625 9.0625 C5.55316406 9.07410156 4.54382813 9.08570313 3.50390625 9.09765625 C1 9 1 9 0 8 C-0.14115161 5.32941149 -0.04247107 2.67567762 0 0 Z " fill="#A6CC39" transform="translate(16,23)"/>
<path d="M0 0 C3.63 0 7.26 0 11 0 C11 2.97 11 5.94 11 9 C7.37 9 3.74 9 0 9 C0 6.03 0 3.06 0 0 Z " fill="#A6CC39" transform="translate(17,43)"/>
<path d="M0 0 C10.625 -0.125 10.625 -0.125 14 1 C14.33 4.3 14.66 7.6 15 11 C14.34 11 13.68 11 13 11 C12.67 8.36 12.34 5.72 12 3 C11.01 3.33 10.02 3.66 9 4 C9 6.31 9 8.62 9 11 C8.01 11 7.02 11 6 11 C6 8.36 6 5.72 6 3 C5.01 3.33 4.02 3.66 3 4 C2.67 6.31 2.34 8.62 2 11 C1.34 11 0.68 11 0 11 C0 7.37 0 3.74 0 0 Z " fill="#85BA40" transform="translate(102,35)"/>
<path d="M0 0 C0.66 0 1.32 0 2 0 C2.33 1.32 2.66 2.64 3 4 C3.86625 2.9790625 3.86625 2.9790625 4.75 1.9375 C5.4925 1.298125 6.235 0.65875 7 0 C9.25 0.25 9.25 0.25 11 1 C9.35 2.98 7.7 4.96 6 7 C7.65 8.98 9.3 10.96 11 13 C7.20411134 12.45773019 5.52788007 10.79872437 3 8 C2.67 9.65 2.34 11.3 2 13 C1.34 13 0.68 13 0 13 C0 8.71 0 4.42 0 0 Z " fill="#83B542" transform="translate(50,10)"/>
<path d="M0 0 C2.31 0 4.62 0 7 0 C9 2 9 2 9.25 5.5 C9 9 9 9 7 11 C5.68 11 4.36 11 3 11 C2.67 11.99 2.34 12.98 2 14 C1.34 14 0.68 14 0 14 C0 9.38 0 4.76 0 0 Z M3 2 C2.67 3.65 2.34 5.3 2 7 C3.98 7.99 3.98 7.99 6 9 C7.29633621 7.93354885 7.29633621 7.93354885 7.0625 5.4375 C7.041875 4.633125 7.02125 3.82875 7 3 C5.68 2.67 4.36 2.34 3 2 Z " fill="#83B640" transform="translate(80,13)"/>
<path d="M0 0 C1 1 1 1 1.0625 3.5625 C1.041875 4.366875 1.02125 5.17125 1 6 C-0.32 6.33 -1.64 6.66 -3 7 C-1.68 7 -0.36 7 1 7 C1 7.66 1 8.32 1 9 C-4.625 10.125 -4.625 10.125 -8 9 C-8 6.03 -8 3.06 -8 0 C-4.69676014 -1.10107995 -3.29495231 -0.86709271 0 0 Z M-6 2 C-6 2.66 -6 3.32 -6 4 C-4.35 4 -2.7 4 -1 4 C-1 3.34 -1 2.68 -1 2 C-2.65 2 -4.3 2 -6 2 Z " fill="#85BA40" transform="translate(100,36)"/>
<path d="M0 0 C2.31 0 4.62 0 7 0 C8.60725635 3.21451269 8.05748185 6.43612536 8 10 C1.25 11.125 1.25 11.125 -1 10 C-1 8.35 -1 6.7 -1 5 C0.98 4.34 2.96 3.68 5 3 C3.02 3 1.04 3 -1 3 C-0.67 2.01 -0.34 1.02 0 0 Z M1 6 C1.33 6.99 1.66 7.98 2 9 C3.32 8.34 4.64 7.68 6 7 C4.35 6.67 2.7 6.34 1 6 Z " fill="#84B741" transform="translate(91,13)"/>
<path d="M0 0 C0.66 0 1.32 0 2 0 C2 4.29 2 8.58 2 13 C-4 14 -4 14 -5.875 12.9375 C-7.47671956 10.17898298 -7.33302312 8.1304173 -7 5 C-5 3 -5 3 -2.375 2.875 C-1.59125 2.91625 -0.8075 2.9575 0 3 C0 2.01 0 1.02 0 0 Z M-4 5 C-4.33 6.65 -4.66 8.3 -5 10 C-3.515 10.99 -3.515 10.99 -2 12 C-1.34 11.67 -0.68 11.34 0 11 C0 9.35 0 7.7 0 6 C-1.32 5.67 -2.64 5.34 -4 5 Z " fill="#88BA45" transform="translate(107,10)"/>
<path d="M0 0 C3.0625 0.1875 3.0625 0.1875 5.0625 2.1875 C5.0625 3.5075 5.0625 4.8275 5.0625 6.1875 C2.7525 6.1875 0.4425 6.1875 -1.9375 6.1875 C-1.6075 6.8475 -1.2775 7.5075 -0.9375 8.1875 C1.0425 7.8575 3.0225 7.5275 5.0625 7.1875 C4.7325 8.1775 4.4025 9.1675 4.0625 10.1875 C1.1875 10.8125 1.1875 10.8125 -1.9375 11.1875 C-3.9375 9.1875 -3.9375 9.1875 -4.16796875 7.27734375 C-4.02781859 0.2570948 -4.02781859 0.2570948 0 0 Z M-1.9375 2.1875 C-1.9375 2.8475 -1.9375 3.5075 -1.9375 4.1875 C-0.2875 4.1875 1.3625 4.1875 3.0625 4.1875 C2.7325 3.5275 2.4025 2.8675 2.0625 2.1875 C0.7425 2.1875 -0.5775 2.1875 -1.9375 2.1875 Z " fill="#84B741" transform="translate(64.9375,12.8125)"/>
<path d="M0 0 C0 0.66 0 1.32 0 2 C-1.32 2.33 -2.64 2.66 -4 3 C-1.525 3.99 -1.525 3.99 1 5 C0.67 6.32 0.34 7.64 0 9 C-3.00272755 9.96516243 -5.04215769 10.22393475 -8 9 C-8.33 8.01 -8.66 7.02 -9 6 C-7.35 6 -5.7 6 -4 6 C-6.475 5.01 -6.475 5.01 -9 4 C-8.67 2.68 -8.34 1.36 -8 0 C-4.94736336 -0.98120464 -3.05263664 -0.98120464 0 0 Z " fill="#85BA40" transform="translate(127,36)"/>
<path d="M0 0 C0.66 0 1.32 0 2 0 C2.33 1.98 2.66 3.96 3 6 C3.66 6 4.32 6 5 6 C5.33 4.02 5.66 2.04 6 0 C6.66 0 7.32 0 8 0 C7.46148032 5.27749285 6.22656164 9.25645564 4 14 C3.01 14 2.02 14 1 14 C1.20625 13.46375 1.4125 12.9275 1.625 12.375 C2.13148796 9.16724292 1.07349597 7.03104744 0 4 C0 2.68 0 1.36 0 0 Z " fill="#84B641" transform="translate(71,13)"/>
<path d="M0 0 C0.66 0 1.32 0 2 0 C2 0.66 2 1.32 2 2 C3.65 2 5.3 2 7 2 C7 2.66 7 3.32 7 4 C5.35 4 3.7 4 2 4 C2 5.98 2 7.96 2 10 C2.99 10 3.98 10 5 10 C5 9.34 5 8.68 5 8 C5.66 8 6.32 8 7 8 C7 9.32 7 10.64 7 12 C2.25 13.125 2.25 13.125 0 12 C0 8.04 0 4.08 0 0 Z " fill="#85BA40" transform="translate(83,33)"/>
<path d="M0 0 C0.33 0 0.66 0 1 0 C1 1.98 1 3.96 1 6 C-1.375 6.625 -1.375 6.625 -4 7 C-4.66 6.34 -5.32 5.68 -6 5 C-4.02 4.67 -2.04 4.34 0 4 C0 2.68 0 1.36 0 0 Z " fill="#82B53F" transform="translate(107,17)"/>
</svg>
